<svg width="16" height="16" viewBox="0 0 16 16" fill="none" xmlns="http://www.w3.org/2000/svg">
<path d="M6.66667 8H3.33333C2.97971 8 2.64057 7.85952 2.39052 7.60948C2.14048 7.35943 2 7.02029 2 6.66667V3.33333C2 2.97971 2.14048 2.64057 2.39052 2.39052C2.64057 2.14048 2.97971 2 3.33333 2H6.66667C7.02029 2 7.35943 2.14048 7.60948 2.39052C7.85952 2.64057 8 2.97971 8 3.33333V6.66667C8 7.02029 7.85952 7.35943 7.60948 7.60948C7.35943 7.85952 7.02029 8 6.66667 8Z" stroke="#7C876E" stroke-width="1.25" stroke-linecap="round" stroke-linejoin="round"/>
<path d="M12.3333 13.3333H10.3333C10.0681 13.3333 9.81376 13.2279 9.62622 13.0404C9.43868 12.8528 9.33333 12.5985 9.33333 12.3333V10.3333C9.33333 10.068 9.43868 9.81368 9.62622 9.62615C9.81376 9.43861 10.0681 9.33325 10.3333 9.33325H12.3333C12.5985 9.33325 12.8529 9.43861 13.0404 9.62615C13.228 9.81368 13.3333 10.068 13.3333 10.3333V12.3333C13.3333 12.5985 13.228 12.8528 13.0404 13.0404C12.8529 13.2279 12.5985 13.3333 12.3333 13.3333Z" stroke="#7C876E" stroke-width="1.25" stroke-linecap="round" stroke-linejoin="round"/>
<path d="M13 7.33325H11C10.7348 7.33325 10.4804 7.2279 10.2929 7.04036C10.1054 6.85282 10 6.59847 10 6.33325V4.33325C10 4.06804 10.1054 3.81368 10.2929 3.62615C10.4804 3.43861 10.7348 3.33325 11 3.33325H13C13.2652 3.33325 13.5196 3.43861 13.7071 3.62615C13.8946 3.81368 14 4.06804 14 4.33325V6.33325C14 6.59847 13.8946 6.85282 13.7071 7.04036C13.5196 7.2279 13.2652 7.33325 13 7.33325Z" stroke="#7C876E" stroke-width="1.25" stroke-linecap="round" stroke-linejoin="round"/>
<path d="M6.33333 14H4.33333C4.06811 14 3.81376 13.8946 3.62622 13.7071C3.43868 13.5196 3.33333 13.2652 3.33333 13V11C3.33333 10.7348 3.43868 10.4804 3.62622 10.2929C3.81376 10.1054 4.06811 10 4.33333 10H6.33333C6.59854 10 6.8529 10.1054 7.04044 10.2929C7.22797 10.4804 7.33333 10.7348 7.33333 11V13C7.33333 13.2652 7.22797 13.5196 7.04044 13.7071C6.8529 13.8946 6.59854 14 6.33333 14Z" stroke="#7C876E" stroke-width="1.25" stroke-linecap="round" stroke-linejoin="round"/>
</svg>
