<svg width="59" height="58" viewBox="0 0 59 58" fill="none" xmlns="http://www.w3.org/2000/svg">
<path d="M46.549 9.0625H11.5251C10.1714 9.0625 9.07408 10.1585 9.07408 11.5104V46.4896C9.07408 47.8415 10.1714 48.9375 11.5251 48.9375H46.549C47.9027 48.9375 49 47.8415 49 46.4896V11.5104C49 10.1585 47.9027 9.0625 46.549 9.0625Z" fill="#B5FB02"/>
<path fill-rule="evenodd" clip-rule="evenodd" d="M11.5251 10.875C11.1737 10.875 10.8889 11.1595 10.8889 11.5104V46.4896C10.8889 46.8405 11.1737 47.125 11.5251 47.125H46.549C46.9004 47.125 47.1852 46.8405 47.1852 46.4896V11.5104C47.1852 11.1595 46.9004 10.875 46.549 10.875H11.5251ZM7.25926 11.5104C7.25926 9.15744 9.16914 7.25 11.5251 7.25H46.549C48.9049 7.25 50.8148 9.15744 50.8148 11.5104V46.4896C50.8148 48.8426 48.9049 50.75 46.549 50.75H11.5251C9.16914 50.75 7.25926 48.8426 7.25926 46.4896V11.5104Z" fill="white"/>
<path fill-rule="evenodd" clip-rule="evenodd" d="M7.25926 29.022C7.25926 28.021 8.07178 27.2095 9.07408 27.2095H48.9556C49.9579 27.2095 50.7705 28.021 50.7705 29.022C50.7705 30.023 49.9579 30.8345 48.9556 30.8345H9.07408C8.07178 30.8345 7.25926 30.023 7.25926 29.022Z" fill="white"/>
<path fill-rule="evenodd" clip-rule="evenodd" d="M32.9853 27.1875C33.9876 27.1875 34.8001 27.999 34.8001 29V48.9375C34.8001 49.9385 33.9876 50.75 32.9853 50.75C31.983 50.75 31.1705 49.9385 31.1705 48.9375V29C31.1705 27.999 31.983 27.1875 32.9853 27.1875Z" fill="white"/>
<path fill-rule="evenodd" clip-rule="evenodd" d="M23.0039 7.29443C24.0062 7.29443 24.8187 8.10592 24.8187 9.10693V29.0223C24.8187 30.0233 24.0062 30.8348 23.0039 30.8348C22.0016 30.8348 21.189 30.0233 21.189 29.0223V9.10693C21.189 8.10592 22.0016 7.29443 23.0039 7.29443Z" fill="white"/>
</svg>
