<svg width="40" height="40" viewBox="0 0 40 40" fill="none" xmlns="http://www.w3.org/2000/svg">
<path fill-rule="evenodd" clip-rule="evenodd" d="M35.9717 10.6216C35.59 8.94828 34.46 7.62828 33.0233 7.17495C30.425 6.36328 20 6.36328 20 6.36328C20 6.36328 9.58 6.36328 6.97667 7.17495C5.545 7.62161 4.415 8.94161 4.02833 10.6216C3.33333 13.6583 3.33333 19.9999 3.33333 19.9999C3.33333 19.9999 3.33333 26.3416 4.02833 29.3783C4.41 31.0516 5.54 32.3716 6.97667 32.8249C9.58 33.6366 20 33.6366 20 33.6366C20 33.6366 30.425 33.6366 33.0233 32.8249C34.455 32.3783 35.585 31.0583 35.9717 29.3783C36.6667 26.3416 36.6667 19.9999 36.6667 19.9999C36.6667 19.9999 36.6667 13.6583 35.9717 10.6216Z" stroke="white" stroke-width="1.5" stroke-linecap="round" stroke-linejoin="round"/>
<path fill-rule="evenodd" clip-rule="evenodd" d="M16.67 25L25.33 20L16.67 15V25Z" stroke="white" stroke-width="1.5" stroke-linecap="round" stroke-linejoin="round"/>
</svg>
