<svg width="24" height="24" viewBox="0 0 24 24" fill="none" xmlns="http://www.w3.org/2000/svg">
<path d="M11.655 12.394L7.655 8.39404" stroke="#FFC400" stroke-width="1.5" stroke-linecap="round" stroke-linejoin="round"/>
<path d="M11.394 4.65405L15.394 8.65405" stroke="#FFC400" stroke-width="1.5" stroke-linecap="round" stroke-linejoin="round"/>
<path d="M3 21H13.586" stroke="#FFC400" stroke-width="1.5" stroke-linecap="round" stroke-linejoin="round"/>
<path d="M3.9 21L4.445 19.368C4.57743 18.9704 4.83141 18.6244 5.17107 18.379C5.51074 18.1335 5.91893 18.0009 6.338 18H10.248C10.6683 17.9995 11.078 18.1314 11.4191 18.3769C11.7602 18.6225 12.0152 18.9693 12.148 19.368L12.689 21" stroke="#FFC400" stroke-width="1.5" stroke-linecap="round" stroke-linejoin="round"/>
<path d="M8.892 7.30012L6.692 9.05512C6.49087 9.21598 6.32585 9.41738 6.20768 9.64622C6.08951 9.87505 6.02083 10.1262 6.00612 10.3833C5.9914 10.6405 6.03098 10.8978 6.12227 11.1386C6.21357 11.3795 6.35453 11.5984 6.536 11.7811L8.212 13.4651C8.39197 13.646 8.60808 13.7869 8.84621 13.8786C9.08435 13.9703 9.33915 14.0107 9.59397 13.9972C9.84879 13.9837 10.0979 13.9166 10.325 13.8003C10.5521 13.684 10.7522 13.521 10.912 13.3221L12.688 11.1161C13.1082 10.5937 13.5844 10.1188 14.108 9.70012L16.308 7.94512C16.5091 7.78426 16.6742 7.58286 16.7923 7.35402C16.9105 7.12518 16.9792 6.87403 16.9939 6.61691C17.0086 6.35978 16.969 6.10243 16.8777 5.86161C16.7864 5.62078 16.6455 5.40188 16.464 5.21912L14.791 3.53612C14.611 3.35521 14.3949 3.21431 14.1568 3.12262C13.9187 3.03093 13.6639 2.99051 13.409 3.004C13.1542 3.0175 12.9051 3.08461 12.678 3.20094C12.4509 3.31727 12.2509 3.48021 12.091 3.67912L10.313 5.88512C9.8927 6.40751 9.41616 6.88203 8.892 7.30012V7.30012Z" stroke="#FFC400" stroke-width="1.5" stroke-linecap="round" stroke-linejoin="round"/>
<path d="M14.376 9.48706L20.3 14.5001C20.5069 14.6758 20.6755 14.8922 20.7955 15.1357C20.9155 15.3792 20.9843 15.6447 20.9976 15.9158C21.011 16.187 20.9686 16.458 20.8731 16.7121C20.7776 16.9662 20.631 17.198 20.4424 17.3933C20.2538 17.5885 20.0272 17.743 19.7765 17.8473C19.5259 17.9515 19.2565 18.0032 18.9851 17.9993C18.7136 17.9953 18.4459 17.9358 18.1984 17.8243C17.9509 17.7128 17.7288 17.5517 17.546 17.3511L12.312 11.5871" stroke="#FFC400" stroke-width="1.5" stroke-linecap="round" stroke-linejoin="round"/>
</svg>
