<svg width="23" height="24" viewBox="0 0 23 24" fill="none" xmlns="http://www.w3.org/2000/svg">
<g clip-path="url(#clip0_0_2058)">
<path d="M11.5 22C16.7928 22 21.0834 17.5228 21.0834 12C21.0834 6.47715 16.7928 2 11.5 2C6.20729 2 1.91669 6.47715 1.91669 12C1.91669 17.5228 6.20729 22 11.5 22Z" fill="#F0F0F0"/>
<path d="M3.89774 5.91211C3.14496 6.9341 2.57734 8.11203 2.24683 9.39168H7.23233L3.89774 5.91211Z" fill="#0052B4"/>
<path d="M20.7532 9.39164C20.4227 8.11203 19.855 6.9341 19.1023 5.91211L15.7678 9.39164H20.7532Z" fill="#0052B4"/>
<path d="M2.24683 14.6089C2.57738 15.8885 3.145 17.0664 3.89774 18.0884L7.23222 14.6089H2.24683Z" fill="#0052B4"/>
<path d="M17.3346 4.06746C16.3551 3.28195 15.2263 2.68965 14 2.34473V7.54695L17.3346 4.06746Z" fill="#0052B4"/>
<path d="M5.66547 19.9331C6.64488 20.7186 7.77373 21.3109 9.00002 21.6558V16.4536L5.66547 19.9331Z" fill="#0052B4"/>
<path d="M8.99998 2.34473C7.77369 2.68965 6.64484 3.28195 5.66547 4.06742L8.99998 7.54691V2.34473Z" fill="#0052B4"/>
<path d="M14.0001 21.6558C15.2264 21.3109 16.3552 20.7186 17.3346 19.9331L14.0001 16.4536V21.6558Z" fill="#0052B4"/>
<path d="M15.7678 14.6089L19.1023 18.0884C19.855 17.0665 20.4227 15.8885 20.7532 14.6089H15.7678Z" fill="#0052B4"/>
<path d="M21.0022 10.6957H12.7501H12.75V2.08465C12.3408 2.02906 11.9237 2 11.5 2C11.0763 2 10.6592 2.02906 10.25 2.08465V10.6956V10.6956H1.99781C1.94454 11.1226 1.91669 11.5579 1.91669 12C1.91669 12.4421 1.94454 12.8774 1.99781 13.3043H10.25H10.25V21.9154C10.6592 21.9709 11.0763 22 11.5 22C11.9237 22 12.3408 21.971 12.75 21.9154V13.3044V13.3044H21.0022C21.0555 12.8774 21.0834 12.4421 21.0834 12C21.0834 11.5579 21.0555 11.1226 21.0022 10.6957Z" fill="#D80027"/>
<path d="M14.0001 14.6089L18.2765 19.0713C18.4732 18.8661 18.6608 18.6516 18.8398 18.4293L15.1786 14.6089H14.0001V14.6089Z" fill="#D80027"/>
<path d="M9.00002 14.6089H8.99995L4.72357 19.0712C4.92018 19.2764 5.12573 19.4722 5.33881 19.659L9.00002 15.8385V14.6089Z" fill="#D80027"/>
<path d="M9.00001 9.39117V9.39109L4.7236 4.92871C4.52692 5.13387 4.33929 5.34836 4.16028 5.5707L7.82152 9.39113H9.00001V9.39117Z" fill="#D80027"/>
<path d="M14.0001 9.39151L18.2765 4.92908C18.0799 4.72385 17.8743 4.52807 17.6613 4.34131L14.0001 8.16174V9.39151Z" fill="#D80027"/>
</g>
<defs>
<clipPath id="clip0_0_2058">
<rect width="19.1667" height="20" fill="white" transform="translate(1.91669 2)"/>
</clipPath>
</defs>
</svg>
