<svg width="128" height="36" viewBox="0 0 128 36" fill="none" xmlns="http://www.w3.org/2000/svg">
<path d="M0 34.773V0.586061H7.7789V28.3264H24.6332V34.773H0Z" fill="#B5FB02"/>
<path d="M24.7964 34.773L39.778 0.586061H47.4608L62.4904 34.773H54.3274L42.0348 4.59082H45.1079L32.7673 34.773H24.7964ZM32.2872 27.4473L34.3519 21.4401H51.6384L53.7512 27.4473H32.2872Z" fill="#B5FB02"/>
<path d="M65.9777 34.773V0.586061H82.3999C86.6254 0.586061 89.7946 1.40004 91.9074 3.02799C94.0522 4.65594 95.1246 6.80484 95.1246 9.47468C95.1246 11.2654 94.6925 12.8283 93.8281 14.1632C92.9638 15.4655 91.7794 16.4749 90.2748 17.1912C88.7702 17.9075 87.0416 18.2656 85.0889 18.2656L86.0012 16.2632C88.114 16.2632 89.9867 16.6214 91.6193 17.3377C93.2519 18.0214 94.5164 19.047 95.4127 20.4145C96.3411 21.782 96.8052 23.4588 96.8052 25.4449C96.8052 28.3752 95.6688 30.6706 93.396 32.3311C91.1231 33.9591 87.7779 34.773 83.3602 34.773H65.9777ZM73.7086 28.8147H82.784C84.8008 28.8147 86.3213 28.4891 87.3457 27.838C88.4021 27.1542 88.9303 26.0798 88.9303 24.6146C88.9303 23.182 88.4021 22.1239 87.3457 21.4401C86.3213 20.7238 84.8008 20.3657 82.784 20.3657H73.1324V14.6027H81.4395C83.3282 14.6027 84.7687 14.2771 85.7611 13.626C86.7855 12.9422 87.2977 11.9166 87.2977 10.5491C87.2977 9.2142 86.7855 8.22115 85.7611 7.56997C84.7687 6.88623 83.3282 6.54436 81.4395 6.54436H73.7086V28.8147Z" fill="#B5FB02"/>
<path d="M113.739 35.3591C111.05 35.3591 108.473 35.001 106.008 34.2847C103.543 33.5358 101.558 32.5753 100.054 31.4032L102.695 25.4449C104.135 26.4868 105.832 27.3496 107.784 28.0333C109.769 28.6845 111.77 29.0101 113.787 29.0101C115.323 29.0101 116.556 28.8636 117.484 28.5705C118.444 28.245 119.149 27.8054 119.597 27.2519C120.045 26.6984 120.269 26.0635 120.269 25.3472C120.269 24.4355 119.917 23.7192 119.213 23.1983C118.508 22.6448 117.58 22.2053 116.428 21.8797C115.275 21.5215 113.995 21.1959 112.586 20.9029C111.21 20.5773 109.817 20.1866 108.409 19.7308C107.032 19.2749 105.768 18.6889 104.615 17.9726C103.463 17.2563 102.518 16.3121 101.782 15.1399C101.078 13.9678 100.726 12.4701 100.726 10.6468C100.726 8.69326 101.238 6.91879 102.262 5.3234C103.319 3.69545 104.887 2.40937 106.968 1.46515C109.081 0.488385 111.722 0 114.891 0C117.004 0 119.085 0.260472 121.133 0.781415C123.182 1.2698 124.991 2.01866 126.559 3.02799L124.159 9.03513C122.59 8.12348 121.021 7.45602 119.453 7.03275C117.884 6.57692 116.348 6.34901 114.843 6.34901C113.339 6.34901 112.106 6.52808 111.146 6.88623C110.185 7.24438 109.497 7.71649 109.081 8.30255C108.665 8.85605 108.457 9.50723 108.457 10.2561C108.457 11.1352 108.809 11.8515 109.513 12.405C110.217 12.9259 111.146 13.3492 112.298 13.6748C113.451 14.0004 114.715 14.326 116.092 14.6516C117.5 14.9771 118.893 15.3516 120.269 15.7748C121.678 16.1981 122.958 16.7679 124.111 17.4842C125.263 18.2005 126.191 19.1447 126.896 20.3168C127.632 21.489 128 22.9704 128 24.7611C128 26.6821 127.472 28.4403 126.415 30.0357C125.359 31.6311 123.774 32.9172 121.662 33.8939C119.581 34.8707 116.94 35.3591 113.739 35.3591Z" fill="#B5FB02"/>
</svg>
