<svg width="23" height="24" viewBox="0 0 23 24" fill="none" xmlns="http://www.w3.org/2000/svg">
<path d="M13.0346 20H9.96796" stroke="white" stroke-width="1.5" stroke-linecap="round" stroke-linejoin="round"/>
<path d="M16.293 10.032V10C16.293 8.67392 15.7881 7.40215 14.8895 6.46447C13.9909 5.52678 12.7721 5 11.5013 5C10.2305 5 9.01169 5.52678 8.11308 6.46447C7.21447 7.40215 6.70963 8.67392 6.70963 10V12.504C6.70956 12.6626 6.66721 12.818 6.58733 12.953C6.50745 13.0879 6.39318 13.197 6.2573 13.268L5.77526 13.519C5.41689 13.7056 5.12943 14.013 4.95952 14.3914C4.78961 14.7698 4.7472 15.1971 4.83918 15.6038C4.93117 16.0105 5.15214 16.3729 5.46626 16.6322C5.78038 16.8914 6.16922 17.0323 6.56972 17.032H16.4329C16.6726 17.1572 16.9364 17.2241 17.2045 17.2278C17.4725 17.2315 17.7379 17.1719 17.9808 17.0534C18.2236 16.9348 18.4376 16.7605 18.6067 16.5434C18.7758 16.3264 18.8956 16.0722 18.9572 15.7999C19.0188 15.5277 19.0205 15.2444 18.9623 14.9713C18.9041 14.6983 18.7874 14.4425 18.621 14.2232C18.4546 14.0038 18.2428 13.8267 18.0014 13.7049C17.7601 13.5831 17.4954 13.5199 17.2273 13.52L16.7453 13.269C16.6094 13.1977 16.4952 13.0884 16.4153 12.9533C16.3354 12.8183 16.2931 12.6627 16.293 12.504V10.032V10.032Z" stroke="white" stroke-width="1.5" stroke-linecap="round" stroke-linejoin="round"/>
</svg>
